<?xml version="1.0" encoding="UTF-8" standalone="no"?>
<svg
   xmlns:dc="http://purl.org/dc/elements/1.1/"
   xmlns:cc="http://creativecommons.org/ns#"
   xmlns:rdf="http://www.w3.org/1999/02/22-rdf-syntax-ns#"
   xmlns:svg="http://www.w3.org/2000/svg"
   xmlns="http://www.w3.org/2000/svg"
   xmlns:sodipodi="http://sodipodi.sourceforge.net/DTD/sodipodi-0.dtd"
   xmlns:inkscape="http://www.inkscape.org/namespaces/inkscape"
   aria-hidden="true"
   focusable="false"
   data-prefix="fas"
   data-icon="igloo"
   class="svg-inline--fa fa-igloo fa-w-18"
   role="img"
   viewBox="0 0 512 512"
   version="1.1"
   id="svg4"
   sodipodi:docname="icon.svg"
   width="512"
   height="512"
   inkscape:version="1.0.2-2 (e86c870879, 2021-01-15)"
   inkscape:export-filename="D:\PHP\faylin-slim\public\static\images\icon-512px.png"
   inkscape:export-xdpi="96"
   inkscape:export-ydpi="96">
  <metadata
     id="metadata10">
    <rdf:RDF>
      <cc:Work
         rdf:about="">
        <dc:format>image/svg+xml</dc:format>
        <dc:type
           rdf:resource="http://purl.org/dc/dcmitype/StillImage" />
        <dc:title />
      </cc:Work>
    </rdf:RDF>
  </metadata>
  <defs
     id="defs8" />
  <sodipodi:namedview
     pagecolor="#ffffff"
     bordercolor="#666666"
     borderopacity="1"
     objecttolerance="10"
     gridtolerance="10"
     guidetolerance="10"
     inkscape:pageopacity="0"
     inkscape:pageshadow="2"
     inkscape:window-width="640"
     inkscape:window-height="480"
     id="namedview6"
     showgrid="false"
     inkscape:zoom="0.58695387"
     inkscape:cx="339.41594"
     inkscape:cy="98.823434"
     inkscape:current-layer="svg4"
     inkscape:document-rotation="0" />
  <path
     fill="currentColor"
     d="M 284.44444,58.577778 C 275.11111,57.511111 265.6,56.888889 256,56.888889 c -88.71111,0 -166.933333,45.155551 -212.8,113.777781 H 284.44444 Z M 85.333333,199.11111 h -58.4 C 9.8666667,233.42222 0,272 0,312.88889 H 85.333333 Z M 312.88889,63.466667 V 170.66667 H 468.8 C 433.06667,117.24444 377.6,78.133331 312.88889,63.466667 Z M 426.66667,312.88889 H 512 C 512,272 502.13333,233.42222 485.06667,199.11111 h -58.4 z m -56.88889,56.88889 v 85.33333 H 483.55556 C 499.28889,455.11111 512,442.4 512,426.66667 V 341.33333 H 365.77778 c 2.31111,9.15556 4,18.57778 4,28.44445 z M 398.22222,199.11111 H 113.77778 v 113.77778 h 44.26666 C 177.77778,279.02222 214.04444,256 256,256 c 41.95556,0 78.22222,23.02222 97.95556,56.88889 h 44.26666 z M 0,426.66667 C 0,442.4 12.711111,455.11111 28.444444,455.11111 H 142.22222 v -85.33333 c 0,-9.86667 1.68889,-19.28889 4,-28.44445 H 0 Z M 256,284.44444 c -47.11111,0 -85.33333,38.22223 -85.33333,85.33334 v 85.33333 h 170.66666 v -85.33333 c 0,-47.11111 -38.22222,-85.33334 -85.33333,-85.33334 z"
     id="path2"
     style="stroke-width:0.888889;fill:#5eb2ce;fill-opacity:1" />
</svg>
